PathFileType	4	(X/Y/Z)	c:\Git\powerlifing_model_clean\simulations\HC835B\Session1\HC835B_OGR_0008\marker_experimental.trc
DataRate	CameraRate	NumFrames	NumMarkers	Units	OrigDataRate	OrigDataStartFrame	OrigNumFrames
240.000000	240.000000	4	38	mm	240.000000	135	217
Frame#	Time	RPSI			LPSI			RASI			LASI			RTH1			RTH2			RTH3			RTH4			RSK1			RSK2			RSK3			RSK4			RCAL1			RCAL2			RCAL3			RST			RPT			RTN			RFMB			RSMB			RVMB			RFMH			RSMH			RVMH			RPM			LTH1			LTH2			LTH3			LTH4			LSK1			LSK2			LSK3			LSK4			LCAL1			LCAL2			LCAL3			LFMH			LVMH			
		X1	Y1	Z1	X2	Y2	Z2	X3	Y3	Z3	X4	Y4	Z4	X5	Y5	Z5	X6	Y6	Z6	X7	Y7	Z7	X8	Y8	Z8	X9	Y9	Z9	X10	Y10	Z10	X11	Y11	Z11	X12	Y12	Z12	X13	Y13	Z13	X14	Y14	Z14	X15	Y15	Z15	X16	Y16	Z16	X17	Y17	Z17	X18	Y18	Z18	X19	Y19	Z19	X20	Y20	Z20	X21	Y21	Z21	X22	Y22	Z22	X23	Y23	Z23	X24	Y24	Z24	X25	Y25	Z25	X26	Y26	Z26	X27	Y27	Z27	X28	Y28	Z28	X29	Y29	Z29	X30	Y30	Z30	X31	Y31	Z31	X32	Y32	Z32	X33	Y33	Z33	X34	Y34	Z34	X35	Y35	Z35	X36	Y36	Z36	X37	Y37	Z37	X38	Y38	Z38	

136	0.5625	483.6031188964845	1083.370239257813	-1510.96142578125	377.5740966796876	1094.815185546875	-1511.231201171875	539.7906494140626	1004.696716308594	-1716.966186523438	286.0693664550782	1011.694885253906	-1700.208251953125	610.8948364257814	746.5069580078126	-1703.371948242188	594.6773071289064	746.7029418945314	-1761.953857421875	599.9905395507814	671.2924804687501	-1740.712524414063	574.6123046875001	670.1846923828126	-1793.675903320313	572.7457275390626	536.8363037109376	-1484.828125	574.4613037109376	475.5001220703126	-1477.852416992188	571.0159912109376	514.2534179687501	-1430.843994140625	559.9127807617189	455.4879455566407	-1424.300048828125	516.6615600585939	558.2747802734376	-1295.27685546875	478.8542785644532	555.5574340820314	-1263.46875	542.4447021484376	561.0509033203126	-1253.760864257813	470.9324951171876	484.1909484863282	-1270.080200195313	568.7746582031251	501.7462768554689	-1252.283325195313	488.6650695800782	427.7948608398439	-1279.005737304688	488.3973388671876	399.731414794922	-1255.480712890625	540.5637817382814	388.121551513672	-1270.804931640625	575.8586425781251	462.3545227050782	-1218.630737304688	480.3541259765626	351.3440246582032	-1215.932250976563	536.3725585937501	337.4859008789063	-1222.375732421875	590.7608032226564	387.0892639160157	-1194.588989257813	527.6888427734376	283.1573486328126	-1210.296875	229.4318084716797	753.3530883789064	-1656.501098632813	224.1774139404297	752.0822753906251	-1717.060302734375	236.2257385253907	675.4368286132814	-1692.6845703125	246.3247985839844	677.1945800781251	-1753.579833984375	306.3645935058594	272.0381164550782	-1573.293701171875	308.5119323730469	235.8936157226563	-1613.746704101563	316.1358642578126	216.0375976562501	-1568.947998046875	333.2873535156251	183.8924255371094	-1612.78466796875	389.2697143554689	91.64342498779298	-1454.757446289063	357.6371459960938	55.15138244628908	-1452.286987304688	415.9637145996095	52.28074264526369	-1456.151733398438	422.3288574218751	51.11749267578126	-1683.315673828125	315.6040649414063	30.08420562744141	-1640.6728515625	
137	0.5666666666666667	483.4073791503907	1084.771850585938	-1523.837890625	377.7267456054688	1095.916015625	-1523.82177734375	540.5856933593751	1007.765319824219	-1729.633666992188	286.8346252441407	1012.695617675781	-1712.470703125	611.2731323242189	749.5809326171876	-1719.85791015625	595.3833618164064	750.8177490234376	-1778.43017578125	600.6231689453126	675.0034179687501	-1758.628540039063	575.4450683593751	674.8264160156251	-1811.691528320313	573.0456542968751	535.9053344726564	-1505.549072265625	574.3590698242189	474.443328857422	-1499.605712890625	571.0907592773439	512.4447021484376	-1451.970458984375	559.5834350585939	453.5893859863282	-1446.36474609375	516.4074707031251	554.2818603515626	-1314.8349609375	478.536590576172	550.8895263671876	-1283.107666015625	542.1876831054689	555.9580688476564	-1273.311157226563	470.4050903320314	479.6243286132814	-1291.527465820313	568.2924804687501	496.5160522460939	-1273.308715820313	487.7690734863282	423.8398437500001	-1301.642211914063	487.6369018554689	394.8057250976564	-1279.173461914063	539.8059692382814	383.5050354003907	-1294.702026367188	575.2634887695314	456.2697753906251	-1240.646728515625	479.3920288085939	345.6077880859376	-1240.559204101563	535.4642944335939	331.6553649902344	-1247.589599609375	589.9655151367189	380.4186096191407	-1218.534301757813	526.6306152343751	277.1573791503907	-1236.904663085938	229.5731048583985	753.4482421875001	-1665.5263671875	224.6264038085938	751.1387329101564	-1726.081298828125	236.2579040527344	675.0478515625001	-1700.260375976563	246.9831237792969	675.4671020507814	-1761.596435546875	306.4400939941407	272.4849853515626	-1575.53857421875	308.6113281250001	235.9211730957032	-1615.561645507813	316.2857360839844	216.5081329345704	-1570.55859375	333.4082641601563	183.802734375	-1614.238403320313	389.2569274902345	92.57260131835939	-1455.24169921875	357.6363525390626	55.99075317382814	-1452.587036132813	415.9979858398439	53.24509811401369	-1456.444946289063	422.6624145507814	51.47872161865236	-1683.684326171875	315.6743164062501	30.09606933593751	-1640.711669921875	
138	0.5708333333333333	483.6109619140626	1086.579345703125	-1536.489868164063	377.8880004882813	1097.255615234375	-1536.510620117188	541.2140502929689	1010.826782226563	-1742.269287109375	287.1403808593751	1013.912048339844	-1725.292846679688	611.1947631835939	753.1026611328126	-1736.089111328125	596.1370239257814	755.5352172851564	-1794.822021484375	601.2915039062501	679.1493530273439	-1776.367797851563	576.2592163085939	679.9506225585939	-1829.493530273438	573.2257080078126	534.9063720703126	-1526.041625976563	574.2192382812501	473.3163452148439	-1521.256225585938	570.9365844726564	510.389373779297	-1472.955200195313	559.2721557617189	451.6372375488282	-1468.562866210938	516.0100708007814	549.8363647460939	-1334.343994140625	478.1939392089845	545.7642211914064	-1302.731567382813	541.8208007812501	550.3676147460939	-1292.760620117188	469.9318847656251	474.825897216797	-1313.053955078125	567.7991333007814	490.8835449218751	-1294.318359375	487.165252685547	419.1099853515626	-1324.638671875	486.8460083007814	389.5703430175782	-1302.863403320313	539.0900268554689	378.6780395507813	-1318.789916992188	574.6600341796876	449.7407531738282	-1262.748901367188	478.5275268554689	339.4234619140626	-1265.70556640625	534.5436401367189	325.4732360839844	-1273.02685546875	589.0917358398439	373.2626037597657	-1242.6494140625	525.2834472656251	270.5449523925782	-1263.752685546875	229.7857513427735	753.7456665039064	-1674.308959960938	225.0464019775391	750.3734741210939	-1734.904907226563	236.4281616210938	674.7551879882814	-1707.785278320313	247.630111694336	674.1959838867189	-1768.910766601563	306.4653930664063	272.8081359863282	-1577.689453125	307.6614990234376	236.5156860351563	-1616.85400390625	316.1051940917969	217.0589294433594	-1572.231201171875	333.2511596679688	183.9471282958985	-1615.533203125	388.9002380371095	93.58813476562501	-1455.674560546875	357.5230712890626	57.01635360717775	-1452.788818359375	415.8113098144532	54.36714172363283	-1456.732543945313	422.4769592285157	51.38051223754884	-1683.818969726563	315.6773986816407	30.05013465881348	-1640.778930664063	
139	0.575	483.8367004394532	1088.328735351563	-1549.4130859375	377.9384460449219	1098.684692382813	-1549.409790039063	541.7203369140626	1013.944519042969	-1754.681274414063	287.3874511718751	1015.355224609375	-1738.3408203125	611.5125122070314	756.9244384765626	-1752.265258789063	596.7590332031251	760.2803955078126	-1810.990112304688	601.8676757812501	683.6614990234376	-1793.92822265625	576.8687744140626	685.4089965820314	-1847.048950195313	573.3732299804689	533.8555297851564	-1546.350341796875	574.0710449218751	472.216033935547	-1542.806396484375	570.8607177734376	508.334197998047	-1493.73486328125	558.8646240234376	449.508514404297	-1490.602783203125	515.5969238281251	545.0802612304689	-1353.71142578125	477.6091613769532	540.2172851562501	-1322.23095703125	541.3109741210939	544.3978881835939	-1312.0615234375	469.114471435547	469.9466857910157	-1334.16845703125	567.2094116210939	484.8961486816407	-1315.3369140625	486.4857482910157	414.0259094238282	-1347.70458984375	485.9494628906251	384.0653076171876	-1326.72021484375	538.2574462890626	373.4335632324219	-1342.956787109375	573.9705200195314	442.830535888672	-1284.94091796875	478.4652099609376	332.8567810058594	-1291.861694335938	533.6088867187501	319.0395202636719	-1298.713623046875	588.2415161132814	365.8308715820313	-1266.9990234375	524.3425903320314	264.0485839843751	-1291.052368164063	230.0594024658204	754.2751464843751	-1682.937133789063	225.578842163086	749.9055175781251	-1743.412231445313	236.8338623046876	674.7007446289064	-1714.972534179688	248.2725372314454	673.2476196289064	-1776.479858398438	306.2450866699219	273.6211547851563	-1579.7470703125	307.4341430664063	236.8989868164063	-1618.693237304688	315.8337707519532	217.9156036376954	-1573.716064453125	332.9300842285157	184.3831787109375	-1616.652709960938	388.302459716797	94.69632720947267	-1456.148193359375	357.1341247558594	57.9687957763672	-1453.1279296875	415.4865722656251	55.69769287109376	-1457.057006835938	422.3258666992189	51.38051223754884	-1683.980834960938	315.6188964843751	29.97046470642091	-1640.82763671875	
